# xmcd CD database file
#
# Track frame offsets:
#	150
#	21517
#	39477
#	59522
#	81242
#	99620
#	122335
#	140797
#	162390
#	181845
#	198890
#	217565
#
# Disc length: 3175 seconds
#
# Revision: 3
# Processed by: cddbd v1.5.2PL0 Copyright (c) Steve Scherf et al.
# Submitted via: CDex 1.70beta3
#
DISCID=a10c650c
DTITLE=センチメンタルグラフティ - Sentimental graffiti -song collection-
DYEAR=1998
DGENRE=Game
TTITLE0=遠藤晶(鈴木麗子)、TIGER-G/ステンドグラスの向こう側
TTITLE1=松岡千恵(米本千珠)、TIGER-G/SHOUT!
TTITLE2=七瀬優(西口有香)、高戸靖宏/彼と彼女のサングラス
TTITLE3=杉原真奈美(豊嶋真千子)、TIGER-G/オリーブの風
TTITLE4=森井夏穂(満仲由紀子)、高戸靖宏/ビリケンさんがいる
TTITLE5=綾崎若菜(小田美智子)、高戸靖宏/月下美人
TTITLE6=山本るりか(今野宏美)、高戸靖宏/スカイタワーで会いましょう
TTITLE7=星野明日香(岡本麻見)、高戸靖宏/涙のサイドシート
TTITLE8=保坂美由紀(牧島有希)、高戸靖宏/友禅流し
TTITLE9=永倉えみる(前田愛)、高戸靖宏/ウルトラesp（エスパー)
TTITLE10=安達妙子(岡田純子)、高戸靖宏/ラブリッジ
TTITLE11=沢渡ほのか(鈴木麻里子)、高戸靖宏/White Calender
EXTD=YEAR: 1998
EXTT0=
EXTT1=
EXTT2=
EXTT3=
EXTT4=
EXTT5=
EXTT6=
EXTT7=
EXTT8=
EXTT9=
EXTT10=
EXTT11=
PLAYORDER=
